<svg width="118" height="213" viewBox="0 0 118 213" fill="none" xmlns="http://www.w3.org/2000/svg">
<path d="M118.001 66.4745L114.803 68.3301L0.894531 2.47264L4.09866 0.624908L118.001 66.4745Z" fill="#808080"/>
<path d="M118.001 77.8912L114.803 79.7451V68.3302L118.001 66.4746V77.8912Z" fill="#D2D2D0"/>
<path d="M118.001 210.292L114.803 212.143V79.7443L118.001 77.8904V210.292Z" fill="#D2D2D0"/>
<path d="M114.803 68.3302L0.894531 2.47274V13.8893L114.803 79.7451V68.3302Z" fill="#FFFFFF"/>
<path d="M0.894531 146.294L114.803 212.143V79.7443L0.894531 13.8885V146.294Z" fill="white"/>
<path d="M7.63867 25.2951V143.45L108.062 201.547V83.3957L7.63867 25.2951Z" fill="#100C0D"/>
<path d="M21.5394 44.6304L15.6504 41.2228V38.3057L21.5394 41.7132V44.6304Z" fill="#CC8B65"/>
<path d="M21.5394 51.6318L15.6504 48.2243V45.3071L21.5394 48.7147V51.6318Z" fill="#CC8B65"/>
<path d="M31.7635 50.5405L25.8652 47.133V44.2158L31.7635 47.6234V50.5405Z" fill="#CC8B65"/>
<path d="M41.3727 56.0942L33.1953 51.3714V48.4511L41.3727 53.1802V56.0942Z" fill="#E3DCD2"/>
<path d="M44.5791 64.9438L23.9102 52.9934V50.0825L44.5791 62.0298V64.9438Z" fill="white"/>
<path d="M32.7856 65.4604L15.6504 55.5492V52.6398L32.7856 62.5448V65.4604Z" fill="white"/>
<path d="M65.545 91.396L15.6504 62.5512V59.6355L65.545 88.4804V91.396Z" fill="white"/>
<path d="M38.317 82.6548L15.6504 69.5478V66.6305L38.317 79.7423V82.6548Z" fill="white"/>
<path d="M21.9296 80.1772L15.6504 76.5487V73.63L21.9296 77.2632V80.1772Z" fill="#E3DCD2"/>
<path d="M34.6939 87.5571L25.0645 81.9905V79.0734L34.6939 84.6477V87.5571Z" fill="#CC8B65"/>
<path d="M55.6015 92.6514L39.9883 83.6228V80.704L55.6015 89.728V92.6514Z" fill="#CC8B65"/>
<path d="M63.3408 97.1187L57.7363 93.8808V90.9652L63.3408 94.2046V97.1187Z" fill="#E3DCD2"/>
<path d="M72.6734 95.519L68.8086 93.2883V90.3727L72.6734 92.6034V95.519Z" fill="#CC8B65"/>
<path d="M77.8199 98.4946L73.9551 96.2561V93.3405L77.8199 95.579V98.4946Z" fill="#E3DCD2"/>
<path d="M86.9468 103.768L83.0742 101.529V98.6197L86.9468 100.854V103.768Z" fill="#CC8B65"/>
<path d="M100.222 111.45L88.2188 104.507V101.588L100.222 108.531V111.45Z" fill="#CC8B65"/>
<path d="M44.8871 72.4565L34.6934 66.5568V63.6459L44.8871 69.5472V72.4565Z" fill="#CC8B65"/>
<path d="M54.2083 77.8423L48.4453 74.5126V71.597L54.2083 74.9282V77.8423Z" fill="#E3DCD2"/>
<path d="M70.4946 87.2656L59.2344 80.7542V77.8323L70.4946 84.3422V87.2656Z" fill="#CC8B65"/>
<path d="M78.4189 91.8398L73.3555 88.9196V85.9962L78.4189 88.9227V91.8398Z" fill="#CC8B65"/>
<path d="M86.2494 96.3638L81.1875 93.4435V90.5279L86.2494 93.4482V96.3638Z" fill="#CC8B65"/>
<path d="M67.5212 78.208L46.8477 66.2607V63.3513L67.5212 75.294V78.208Z" fill="#CC8B65"/>
<path d="M75.4307 82.7822L69.9258 79.6035V76.6848L75.4307 79.8651V82.7822Z" fill="#E3DCD2"/>
<path d="M21.2318 94.4473L15.9414 91.3931V88.3763L21.2318 91.4336V94.4473Z" fill="#E3DCD2"/>
<path d="M40.274 105.461L24.9297 96.5896V93.5712L40.274 102.452V105.461Z" fill="white"/>
<path d="M34.6689 116.692L19.3184 107.821V104.803L34.6689 113.676V116.692Z" fill="white"/>
<path d="M24.9291 118.297L19.3184 115.056V112.04L24.9291 115.284V118.297Z" fill="#CC8B65"/>
<path d="M44.424 129.561L30.0918 121.282V118.264L44.424 126.553V129.561Z" fill="#CC8B65"/>
<path d="M57.5331 137.145L52.1836 134.052V131.037L57.5331 134.136V137.145Z" fill="#CC8B65"/>
<path d="M49.1927 132.327L46.5234 130.779V127.761L49.1927 129.308V132.327Z" fill="#E3DCD2"/>
<path d="M28.9294 120.61L26.257 119.064L26.2539 116.05L28.9294 117.593V120.61Z" fill="#E3DCD2"/>
<path d="M24.9291 125.53L19.3184 122.288V119.273L24.9291 122.52V125.53Z" fill="#CC8B65"/>
<path d="M22.8909 131.592L19.3184 129.528V126.514L22.8909 128.574V131.592Z" fill="#CC8B65"/>
<path d="M50.1602 147.354L28.543 134.86V131.843L50.1602 144.337V147.354Z" fill="white"/>
<path d="M37.2614 147.472L19.2773 137.078V134.069L37.2521 144.46L37.2614 147.472Z" fill="white"/>
<path d="M50.9032 155.368L39.5668 148.81L39.5605 145.794L50.9032 152.352V155.368Z" fill="#CC8B65"/>
<path d="M99.624 183.537L85.752 175.507V172.497L99.624 180.518V183.537Z" fill="#CC8B65"/>
<path d="M58.425 159.718L53.7891 157.038V154.024L58.425 156.7V159.718Z" fill="#E3DCD2"/>
<path d="M82.1234 173.413L64.1953 163.055V160.038L82.1234 170.397V173.413Z" fill="#CC8B65"/>
<path d="M73.8024 161.016L52.1836 148.52V145.507L73.8024 158.007V161.016Z" fill="#CC8B65"/>
<path d="M44.424 136.804L30.0918 128.518V125.503L44.424 133.792V136.804Z" fill="#CC8B65"/>
<path d="M57.5331 144.38L52.1836 141.29V138.274L57.5331 141.37V144.38Z" fill="#CC8B65"/>
<path d="M49.1927 139.562L46.5234 138.015V134.998L49.1927 136.547V139.562Z" fill="#E3DCD2"/>
<path d="M28.9294 127.847L26.257 126.3L26.2539 123.28L28.9294 124.827V127.847Z" fill="#E3DCD2"/>
<path d="M26.9966 133.965L24.3164 132.418V129.401L26.9966 130.95V133.965Z" fill="#E3DCD2"/>
<path d="M52.3697 126.931L37.0254 118.055V115.038L52.3697 123.911V126.931Z" fill="#CC8B65"/>
<path d="M66.5184 135.1L56.791 129.483V126.468L66.5184 132.087V135.1Z" fill="#CC8B65"/>
<path d="M83.5384 144.942L68.8906 136.476V133.464L83.5384 141.927V144.942Z" fill="#CC8B65"/>
<path d="M97.0967 152.783L88.4141 147.761V144.738L97.0967 149.761V152.783Z" fill="#CC8B65"/>
<path d="M60.0435 116.887L44.6914 108.019V105.001L60.0435 113.874V116.887Z" fill="#CC8B65"/>
</svg>
