<svg width="133" height="188" viewBox="0 0 133 188" fill="none" xmlns="http://www.w3.org/2000/svg">
<path d="M132.42 74.2525L129.219 76.105L0.765625 1.84316L3.9775 6.84568e-05L132.42 74.2525Z" fill="#808080"/>
<path d="M132.42 85.671L129.219 87.5234V76.1054L132.42 74.253V85.671Z" fill="#D2D2D0"/>
<path d="M132.42 185.19L129.219 187.041V87.5235L132.42 85.6711V185.19Z" fill="#D2D2D0"/>
<path d="M129.219 76.1054L0.765625 1.84359V13.2585L129.219 87.5234V76.1054Z" fill="#FFFFFF"/>
<path d="M0.765625 112.788L129.219 187.041V87.5235L0.765625 13.2586V112.788Z" fill="white"/>
<path d="M7.51172 24.6704V109.947L122.477 176.452V91.1708L7.51172 24.6704Z" fill="#100C0D"/>
<path d="M34.1903 51.3867L13.2539 39.279V36.2685L34.1903 48.3699V51.3867Z" fill="white"/>
<path d="M27.3327 54.6577L13.2539 46.5148V43.5058L27.3327 51.644V54.6577Z" fill="#CC8B65"/>
<path d="M20.2933 57.8262L13.2539 53.7509V50.7387L20.2933 54.8063V57.8262Z" fill="#E3DCD2"/>
<path d="M59.7665 80.6416L22.1582 58.8998V55.8892L59.7618 77.6279L59.7665 80.6416Z" fill="#CC8B65"/>
<path d="M43.1297 85.8438L16.25 70.3068V67.2869L43.1297 82.827V85.8438Z" fill="white"/>
<path d="M36.375 89.1729L24.7168 82.4356V79.4188L36.375 86.1623V89.1729Z" fill="white"/>
<path d="M41.4874 106.944L20.293 94.6935V91.6735L41.4874 103.931V106.944Z" fill="white"/>
<path d="M48.8362 118.433L20.293 101.926V98.9095L48.8362 115.413V118.433Z" fill="white"/>
<path d="M26.3856 112.691L20.293 109.164V106.152L26.3856 109.675V112.691Z" fill="#CC8B65"/>
<path d="M63.2441 133.999L30.5469 115.09V112.079L63.2441 130.976V133.999Z" fill="white"/>
<path d="M64.7343 127.616L50.8887 119.619V116.604L64.7296 124.599L64.7343 127.616Z" fill="#CC8B65"/>
<path d="M74.2692 133.132L68.3398 129.703V126.697L74.2692 130.11V133.132Z" fill="#E3DCD2"/>
<path d="M72.5669 139.384L66.6406 135.95V132.938L72.5669 136.367V139.384Z" fill="#E3DCD2"/>
<path d="M83.8888 138.689L77.9656 135.266L77.9609 132.249L83.8888 135.683V138.689Z" fill="#E3DCD2"/>
<path d="M116.736 154.669L87.1016 137.533V140.55L116.736 157.681V154.669Z" fill="#CC8B65"/>
<path d="M98.6044 151.423L75.9082 138.303V141.315L98.6044 154.441V151.423Z" fill="#CC8B65"/>
<path d="M54.1983 114.298L43.7324 108.244V105.237L54.1983 111.281V114.298Z" fill="#E3DCD2"/>
<path d="M75.262 126.472L58.0117 116.494V113.482L75.262 123.455V126.472Z" fill="#CC8B65"/>
<path d="M116.736 135.633L39.9883 91.2608V88.2472L116.736 132.613V135.633Z" fill="#CC8B65"/>
<path d="M21.301 80.4546L16.25 77.5405V74.5237L21.301 77.4424V80.4546Z" fill="#E3DCD2"/>
<path d="M14.7386 61.9355L13.4219 61.1743V58.1622L14.7386 58.925V61.9355Z" fill="#E3DCD2"/>
<path d="M18.28 86.293L16.957 85.5333V82.5103L18.28 83.2762V86.293Z" fill="#E3DCD2"/>
<path d="M48.8359 89.1436L44.3398 86.5439V83.5272L48.8359 86.1268V89.1436Z" fill="#E3DCD2"/>
<path d="M30.8568 56.6953L29.1934 55.7364V52.7196L30.8568 53.6879V56.6953Z" fill="#E3DCD2"/>
<path d="M36.3765 59.8833L32.9609 57.911V54.8958L36.3765 56.8728V59.8833Z" fill="#E3DCD2"/>
<path d="M41.4882 55.604L35.0566 51.8883V48.8746L41.4882 52.5935V55.604Z" fill="#E3DCD2"/>
</svg>
